<svg width="501.2125244140625px" height="121.60000610351562px" xmlns="http://www.w3.org/2000/svg" viewBox="-0.60626220703125 14.199996948242188 501.2125244140625 121.60000610351562" style="background: rgba(0, 0, 0, 0);" preserveAspectRatio="xMidYMid"><defs><linearGradient id="editing-gradient-gradient" x1="0" x2="1" y1="0.5" y2="0.5" gradientUnits="objectBoundingBox"><stop offset="0" stop-color="#f0f"></stop><stop offset="1" stop-color="#0ff"></stop></linearGradient></defs><g><g transform="translate(74.58764219284058, 98.70999908447266)"><path d="M20.22-22.46L20.22-22.46L20.22-22.46Q21.12-24.83 21.12-26.88L21.12-26.88L21.12-26.88Q21.12-30.66 18.05-30.66L18.05-30.66L18.05-30.66Q16.45-30.66 15.14-29.22L15.14-29.22L15.14-29.22Q13.82-27.78 13.82-25.98L13.82-25.98L13.82-25.98Q13.82-24.70 14.85-23.68L14.85-23.68L14.85-23.68Q16.32-22.27 20.10-19.97L20.10-19.97L20.10-19.97Q23.87-17.66 25.31-15.78L25.31-15.78L25.31-15.78Q26.75-13.89 26.75-11.30L26.75-11.30L26.75-11.30Q26.75-8.70 25.50-6.34L25.50-6.34L25.50-6.34Q24.26-3.97 22.02-2.30L22.02-2.30L22.02-2.30Q17.22 1.28 9.54 1.28L9.54 1.28L9.54 1.28Q5.38 1.28 2.18-0.90L2.18-0.90L2.18-0.90Q-1.02-3.01-1.02-5.50L-1.02-5.50L-1.02-5.50Q-1.02-8 0.80-9.47L0.80-9.47L0.80-9.47Q2.62-10.94 5.31-10.94L5.31-10.94L5.31-10.94Q8-10.94 9.66-9.92L9.66-9.92L9.66-9.92Q8.83-7.81 8.83-6.40L8.83-6.40L8.83-6.40Q8.83-2.18 12.42-2.18L12.42-2.18L12.42-2.18Q13.95-2.18 14.98-3.14L14.98-3.14L14.98-3.14Q16-4.10 16-5.76L16-5.76L16-5.76Q16-9.02 10.50-12.48L10.50-12.48L10.50-12.48Q6.02-15.42 4.99-16.58L4.99-16.58L4.99-16.58Q3.26-18.62 3.26-21.18L3.26-21.18L3.26-21.18Q3.26-23.74 4.48-26.18L4.48-26.18L4.48-26.18Q5.70-28.61 7.94-30.34L7.94-30.34L7.94-30.34Q12.61-33.92 20.74-33.92L20.74-33.92L20.74-33.92Q24.90-33.92 27.36-32.26L27.36-32.26L27.36-32.26Q29.82-30.59 29.82-27.78L29.82-27.78L29.82-27.78Q29.82-24.96 28.13-23.36L28.13-23.36L28.13-23.36Q26.43-21.76 23.36-21.76L23.36-21.76L23.36-21.76Q21.25-21.76 20.22-22.46ZM52.74-2.69L52.74-2.69L52.74-2.69Q49.66 1.28 42.05 1.28L42.05 1.28L42.05 1.28Q38.08 1.28 35.20-1.12L35.20-1.12L35.20-1.12Q32.32-3.52 32.32-6.98L32.32-6.98L32.32-6.98Q32.32-8.90 32.51-9.86L32.51-9.86L36.80-32.64L49.79-33.92L45.12-9.22L45.12-9.22Q44.86-7.81 44.86-6.98L44.86-6.98L44.86-6.98Q44.86-3.26 47.10-3.26L47.10-3.26L47.10-3.26Q49.60-3.26 51.39-6.66L51.39-6.66L51.39-6.66Q51.97-7.74 52.22-9.15L52.22-9.15L56.77-32.64L69.38-33.92L64.64-8.96L64.64-8.96Q64.45-8 64.45-6.98L64.45-6.98L64.45-6.98Q64.45-5.95 65.02-4.83L65.02-4.83L65.02-4.83Q65.60-3.71 67.46-3.46L67.46-3.46L67.46-3.46Q67.07-1.92 65.73-0.90L65.73-0.90L65.73-0.90Q62.91 1.28 59.87 1.28L59.87 1.28L59.87 1.28Q56.83 1.28 55.04 0.19L55.04 0.19L55.04 0.19Q53.25-0.90 52.74-2.69ZM72-3.07L72-3.07L79.94-44.80L92.93-46.08L90.94-36.29L90.94-36.29Q90.24-33.28 89.34-31.17L89.34-31.17L89.34-31.17Q90.75-32.96 93.82-33.66L93.82-33.66L93.82-33.66Q94.72-33.92 95.81-33.92L95.81-33.92L95.81-33.92Q101.76-33.92 105.02-30.30L105.02-30.30L105.02-30.30Q108.29-26.69 108.29-19.71L108.29-19.71L108.29-19.71Q108.29-10.62 103.10-4.93L103.10-4.93L103.10-4.93Q97.54 1.28 87.42 1.28L87.42 1.28L87.42 1.28Q80.45 1.28 75.20-1.02L75.20-1.02L75.20-1.02Q73.34-1.86 72-3.07ZM88.26-22.40L84.86-3.65L84.86-3.65Q86.21-2.50 87.87-2.50L87.87-2.50L87.87-2.50Q89.54-2.50 90.50-3.14L90.50-3.14L90.50-3.14Q91.46-3.78 92.16-5.06L92.16-5.06L92.16-5.06Q94.08-8.51 95.62-19.07L95.62-19.07L95.62-19.07Q96.06-22.08 96.06-25.09L96.06-25.09L96.06-25.09Q96.06-28.10 95.39-29.06L95.39-29.06L95.39-29.06Q94.72-30.02 93.44-30.02L93.44-30.02L93.44-30.02Q89.54-30.02 88.26-22.40L88.26-22.40ZM114.91-1.92L114.91-1.92L114.91-1.92Q113.41-3.58 112.74-6.21L112.74-6.21L112.74-6.21Q112.06-8.83 112.06-13.12L112.06-13.12L112.06-13.12Q112.06-17.41 113.54-21.31L113.54-21.31L113.54-21.31Q115.01-25.22 117.70-28.03L117.70-28.03L117.70-28.03Q123.20-33.92 132.29-33.92L132.29-33.92L132.29-33.92Q135.55-33.92 137.92-32.83L137.92-32.83L148.86-33.92L144.13-8.96L144.13-8.96Q143.94-8.19 143.94-6.78L143.94-6.78L143.94-6.78Q143.94-5.38 144.80-4.48L144.80-4.48L144.80-4.48Q145.66-3.58 146.94-3.46L146.94-3.46L146.94-3.46Q146.30-1.28 143.97 0L143.97 0L143.97 0Q141.63 1.28 139.01 1.28L139.01 1.28L139.01 1.28Q136.38 1.28 134.62 0.29L134.62 0.29L134.62 0.29Q132.86-0.70 132.35-2.37L132.35-2.37L132.35-2.37Q131.33-0.77 129.15 0.26L129.15 0.26L129.15 0.26Q126.98 1.28 124.06 1.28L124.06 1.28L124.06 1.28Q121.15 1.28 118.78 0.51L118.78 0.51L118.78 0.51Q116.42-0.26 114.91-1.92ZM128.42-27.90L128.42-27.90L128.42-27.90Q127.68-26.75 127.04-24.80L127.04-24.80L127.04-24.80Q126.40-22.85 125.34-17.63L125.34-17.63L125.34-17.63Q124.29-12.42 124.29-8.70L124.29-8.70L124.29-8.70Q124.29-4.99 124.86-3.90L124.86-3.90L124.86-3.90Q125.44-2.82 126.46-2.82L126.46-2.82L126.46-2.82Q128.51-2.82 130.02-4.77L130.02-4.77L130.02-4.77Q131.52-6.72 132.10-10.18L132.10-10.18L135.49-28.93L135.49-28.93Q134.14-30.08 132.58-30.08L132.58-30.08L132.58-30.08Q131.01-30.08 130.08-29.57L130.08-29.57L130.08-29.57Q129.15-29.06 128.42-27.90ZM171.46-22.46L171.46-22.46L171.46-22.46Q172.35-24.83 172.35-26.88L172.35-26.88L172.35-26.88Q172.35-30.66 169.28-30.66L169.28-30.66L169.28-30.66Q167.68-30.66 166.37-29.22L166.37-29.22L166.37-29.22Q165.06-27.78 165.06-25.98L165.06-25.98L165.06-25.98Q165.06-24.70 166.08-23.68L166.08-23.68L166.08-23.68Q167.55-22.27 171.33-19.97L171.33-19.97L171.33-19.97Q175.10-17.66 176.54-15.78L176.54-15.78L176.54-15.78Q177.98-13.89 177.98-11.30L177.98-11.30L177.98-11.30Q177.98-8.70 176.74-6.34L176.74-6.34L176.74-6.34Q175.49-3.97 173.25-2.30L173.25-2.30L173.25-2.30Q168.45 1.28 160.77 1.28L160.77 1.28L160.77 1.28Q156.61 1.28 153.41-0.90L153.41-0.90L153.41-0.90Q150.21-3.01 150.21-5.50L150.21-5.50L150.21-5.50Q150.21-8 152.03-9.47L152.03-9.47L152.03-9.47Q153.86-10.94 156.54-10.94L156.54-10.94L156.54-10.94Q159.23-10.94 160.90-9.92L160.90-9.92L160.90-9.92Q160.06-7.81 160.06-6.40L160.06-6.40L160.06-6.40Q160.06-2.18 163.65-2.18L163.65-2.18L163.65-2.18Q165.18-2.18 166.21-3.14L166.21-3.14L166.21-3.14Q167.23-4.10 167.23-5.76L167.23-5.76L167.23-5.76Q167.23-9.02 161.73-12.48L161.73-12.48L161.73-12.48Q157.25-15.42 156.22-16.58L156.22-16.58L156.22-16.58Q154.50-18.62 154.50-21.18L154.50-21.18L154.50-21.18Q154.50-23.74 155.71-26.18L155.71-26.18L155.71-26.18Q156.93-28.61 159.17-30.34L159.17-30.34L159.17-30.34Q163.84-33.92 171.97-33.92L171.97-33.92L171.97-33.92Q176.13-33.92 178.59-32.26L178.59-32.26L178.59-32.26Q181.06-30.59 181.06-27.78L181.06-27.78L181.06-27.78Q181.06-24.96 179.36-23.36L179.36-23.36L179.36-23.36Q177.66-21.76 174.59-21.76L174.59-21.76L174.59-21.76Q172.48-21.76 171.46-22.46ZM215.62-7.10L215.62-7.10L215.62-7.10Q215.62-4.29 218.50-3.46L218.50-3.46L218.50-3.46Q217.79-1.09 215.04 0.19L215.04 0.19L215.04 0.19Q212.74 1.28 210.21 1.28L210.21 1.28L210.21 1.28Q207.68 1.28 206.37 0.61L206.37 0.61L206.37 0.61Q205.06-0.06 204.35-1.15L204.35-1.15L204.35-1.15Q203.20-2.82 203.20-5.95L203.20-5.95L203.20-5.95Q203.20-7.81 204.22-12.93L204.22-12.93L205.12-17.79L205.12-17.79Q206.21-23.36 206.21-25.41L206.21-25.41L206.21-25.41Q206.21-28.99 204.22-28.99L204.22-28.99L204.22-28.99Q201.73-28.99 200.13-25.34L200.13-25.34L200.13-25.34Q199.49-23.94 199.04-21.82L199.04-21.82L194.69 0L181.82 1.28L190.85-44.80L203.71-46.08L203.20-43.52L203.20-43.52Q201.41-33.66 199.87-30.34L199.87-30.34L199.87-30.34Q203.46-33.92 210.05-33.92L210.05-33.92L210.05-33.92Q217.02-33.92 218.30-29.31L218.30-29.31L218.30-29.31Q218.75-27.84 218.75-26.56L218.75-26.56L218.75-26.56Q218.75-25.28 218.66-24.29L218.66-24.29L218.66-24.29Q218.56-23.30 218.24-21.50L218.24-21.50L217.41-16.90L215.94-9.66L215.94-9.66Q215.62-8.19 215.62-7.10ZM226.05-10.37L226.05-10.37L226.05-10.37Q224-11.84 224-14.66L224-14.66L224-14.66Q224-16.19 224.77-17.44L224.77-17.44L224.77-17.44Q225.54-18.69 227.07-18.88L227.07-18.88L239.68-18.88L239.68-18.88Q241.79-18.88 242.43-20.16L242.43-20.16L242.43-20.16Q243.46-19.58 243.90-18.37L243.90-18.37L243.90-18.37Q244.35-17.15 244.35-15.87L244.35-15.87L244.35-15.87Q244.35-14.59 243.36-13.34L243.36-13.34L243.36-13.34Q242.37-12.10 240.90-11.97L240.90-11.97L229.18-11.97L229.18-11.97Q227.84-11.97 227.20-11.55L227.20-11.55L227.20-11.55Q226.56-11.14 226.05-10.37ZM255.81-11.71L271.87-33.86L271.87-33.86Q266.05-31.42 260.99-31.42L260.99-31.42L260.99-31.42Q255.94-31.42 253.31-33.15L253.31-33.15L253.31-33.15Q250.69-34.88 250.69-37.89L250.69-37.89L250.69-37.89Q250.69-39.74 251.23-41.15L251.23-41.15L251.23-41.15Q251.78-42.56 253.18-44.29L253.18-44.29L253.18-44.29Q253.82-43.01 262.53-42.37L262.53-42.37L262.53-42.37Q264.83-42.24 266.88-42.24L266.88-42.24L281.09-42.24L282.50-36.86L279.55-32.26L276.67-27.33L272.77-20.10L272.77-20.10Q269.57-14.02 268.64-11.26L268.64-11.26L268.64-11.26Q267.71-8.51 267.52-7.42L267.52-7.42L267.52-7.42Q267.14-5.82 267.14-4.45L267.14-4.45L267.14-4.45Q267.14-3.07 267.84-2.37L267.84-2.37L267.84-2.37Q266.56-0.06 262.78 0.96L262.78 0.96L262.78 0.96Q261.57 1.28 260.10 1.28L260.10 1.28L260.10 1.28Q258.62 1.28 257.34 0.70L257.34 0.70L257.34 0.70Q256.06 0.13 255.23-0.77L255.23-0.77L255.23-0.77Q253.63-2.69 253.63-4.90L253.63-4.90L253.63-4.90Q253.63-7.10 254.27-8.67L254.27-8.67L254.27-8.67Q254.91-10.24 255.81-11.71L255.81-11.71ZM289.41-11.71L305.47-33.86L305.47-33.86Q299.65-31.42 294.59-31.42L294.59-31.42L294.59-31.42Q289.54-31.42 286.91-33.15L286.91-33.15L286.91-33.15Q284.29-34.88 284.29-37.89L284.29-37.89L284.29-37.89Q284.29-39.74 284.83-41.15L284.83-41.15L284.83-41.15Q285.38-42.56 286.78-44.29L286.78-44.29L286.78-44.29Q287.42-43.01 296.13-42.37L296.13-42.37L296.13-42.37Q298.43-42.24 300.48-42.24L300.48-42.24L314.69-42.24L316.10-36.86L313.15-32.26L310.27-27.33L306.37-20.10L306.37-20.10Q303.17-14.02 302.24-11.26L302.24-11.26L302.24-11.26Q301.31-8.51 301.12-7.42L301.12-7.42L301.12-7.42Q300.74-5.82 300.74-4.45L300.74-4.45L300.74-4.45Q300.74-3.07 301.44-2.37L301.44-2.37L301.44-2.37Q300.16-0.06 296.38 0.96L296.38 0.96L296.38 0.96Q295.17 1.28 293.70 1.28L293.70 1.28L293.70 1.28Q292.22 1.28 290.94 0.70L290.94 0.70L290.94 0.70Q289.66 0.13 288.83-0.77L288.83-0.77L288.83-0.77Q287.23-2.69 287.23-4.90L287.23-4.90L287.23-4.90Q287.23-7.10 287.87-8.67L287.87-8.67L287.87-8.67Q288.51-10.24 289.41-11.71L289.41-11.71ZM315.52-15.23L315.52-15.23L315.52-15.23Q315.52-28.16 321.60-35.84L321.60-35.84L321.60-35.84Q327.68-43.52 338.11-43.52L338.11-43.52L338.11-43.52Q343.68-43.52 346.88-39.36L346.88-39.36L346.88-39.36Q350.08-35.20 350.08-28.26L350.08-28.26L350.08-28.26Q350.08-21.31 348.51-15.90L348.51-15.90L348.51-15.90Q346.94-10.50 344.13-6.66L344.13-6.66L344.13-6.66Q338.24 1.34 328.45 1.34L328.45 1.34L328.45 1.34Q321.86 1.34 318.69-2.72L318.69-2.72L318.69-2.72Q315.52-6.78 315.52-15.23ZM326.85-10.88L326.85-10.88L326.85-10.88Q326.85-4.42 328.96-4.42L328.96-4.42L328.96-4.42Q330.88-4.42 332.64-6.66L332.64-6.66L332.64-6.66Q334.40-8.90 335.81-12.67L335.81-12.67L335.81-12.67Q338.82-20.93 338.82-31.17L338.82-31.17L338.82-31.17Q338.82-34.62 338.27-36.19L338.27-36.19L338.27-36.19Q337.73-37.76 336.29-37.76L336.29-37.76L336.29-37.76Q334.85-37.76 333.15-35.26L333.15-35.26L333.15-35.26Q331.46-32.77 330.05-28.86L330.05-28.86L330.05-28.86Q326.85-19.97 326.85-10.88Z" fill="url(#editing-gradient-gradient)"></path></g></g><style>text {
  font-size: 64px;
  font-family: Arial Black;
  dominant-baseline: central;
  text-anchor: middle;
}</style></svg>